<svg width="16" height="16" viewBox="0 0 16 16" fill="none" xmlns="http://www.w3.org/2000/svg">
<g clip-path="url(#clip0_1_1683)">
<path d="M9.99481 13.9927V8.66217C9.99481 8.48545 9.92461 8.31597 9.79965 8.19101C9.67469 8.06605 9.50521 7.99585 9.32849 7.99585H6.66321C6.48649 7.99585 6.31701 8.06605 6.19205 8.19101C6.06709 8.31597 5.99689 8.48545 5.99689 8.66217V13.9927" stroke="#A855F7" stroke-width="1.33264" stroke-linecap="round" stroke-linejoin="round"/>
<path d="M1.99896 6.66321C1.99892 6.46936 2.04116 6.27783 2.12276 6.10198C2.20435 5.92614 2.32333 5.77021 2.47138 5.64508L7.13562 1.64716C7.37615 1.44387 7.68091 1.33234 7.99584 1.33234C8.31077 1.33234 8.61553 1.44387 8.85606 1.64716L13.5203 5.64508C13.6684 5.77021 13.7873 5.92614 13.8689 6.10198C13.9505 6.27783 13.9928 6.46936 13.9927 6.66321V12.6601C13.9927 13.0135 13.8523 13.3525 13.6024 13.6024C13.3525 13.8523 13.0135 13.9927 12.6601 13.9927H3.3316C2.97816 13.9927 2.6392 13.8523 2.38928 13.6024C2.13937 13.3525 1.99896 13.0135 1.99896 12.6601V6.66321Z" stroke="#A855F7" stroke-width="1.33264" stroke-linecap="round" stroke-linejoin="round"/>
</g>
<defs>
<clipPath id="clip0_1_1683">
<rect width="15.9917" height="15.9917" fill="white"/>
</clipPath>
</defs>
</svg>
