<svg width="15" height="15" viewBox="0 0 15 15" fill="none" xmlns="http://www.w3.org/2000/svg">
<path d="M7.01422 0.862814C7.04342 0.803819 7.08853 0.754159 7.14445 0.719439C7.20038 0.684719 7.26489 0.666321 7.33072 0.666321C7.39655 0.666321 7.46106 0.684719 7.51699 0.719439C7.57291 0.754159 7.61802 0.803819 7.64722 0.862814L9.18642 3.98053C9.28782 4.18573 9.4375 4.36326 9.62261 4.49789C9.80772 4.63252 10.0227 4.72022 10.2492 4.75346L13.6914 5.25719C13.7566 5.26664 13.8179 5.29416 13.8683 5.33662C13.9187 5.37908 13.9562 5.4348 13.9766 5.49747C13.997 5.56015 13.9994 5.62727 13.9836 5.69126C13.9679 5.75525 13.9345 5.81354 13.8873 5.85955L11.3979 8.28362C11.2338 8.4436 11.1109 8.64109 11.04 8.85907C10.9691 9.07706 10.9522 9.30901 10.9908 9.53497L11.5785 12.9599C11.59 13.025 11.583 13.0922 11.5582 13.1535C11.5334 13.2149 11.4918 13.2681 11.4383 13.307C11.3847 13.3459 11.3213 13.369 11.2553 13.3736C11.1892 13.3782 11.1232 13.3641 11.0648 13.333L7.98771 11.7152C7.78496 11.6087 7.55939 11.5531 7.33039 11.5531C7.10139 11.5531 6.87581 11.6087 6.67306 11.7152L3.59666 13.333C3.53825 13.3639 3.47233 13.3778 3.4064 13.3731C3.34047 13.3685 3.27717 13.3454 3.22372 13.3065C3.17027 13.2676 3.12879 13.2145 3.10402 13.1532C3.07925 13.092 3.07217 13.025 3.0836 12.9599L3.67062 9.53563C3.7094 9.30957 3.6926 9.07747 3.62167 8.85935C3.55075 8.64123 3.42782 8.44364 3.2635 8.28362L0.774131 5.86021C0.726552 5.81426 0.692836 5.75587 0.676823 5.69168C0.660811 5.6275 0.663147 5.56011 0.683564 5.4972C0.703981 5.43428 0.741659 5.37836 0.792306 5.33581C0.842953 5.29326 0.904532 5.26579 0.970029 5.25653L4.41157 4.75346C4.63829 4.72047 4.8536 4.63289 5.03897 4.49825C5.22433 4.3636 5.37421 4.18593 5.47568 3.98053L7.01422 0.862814Z" fill="#FDC700" stroke="#FDC700" stroke-width="1.33264" stroke-linecap="round" stroke-linejoin="round"/>
</svg>
